<?xml version="1.0" standalone="no"?>
<!DOCTYPE svg PUBLIC "-//W3C//DTD SVG 20010904//EN"
 "http://www.w3.org/TR/2001/REC-SVG-20010904/DTD/svg10.dtd">
<svg version="1.0" xmlns="http://www.w3.org/2000/svg"
 width="897.000000pt" height="400.000000pt" viewBox="0 0 897.000000 400.000000"
 preserveAspectRatio="xMidYMid meet">

<g transform="translate(0.000000,400.000000) scale(0.100000,-0.100000)"
fill="#000000" stroke="none">
<path d="M1645 3668 c-141 -127 -429 -384 -539 -482 -56 -50 -148 -133 -206
-186 -58 -53 -159 -143 -225 -200 -200 -175 -229 -205 -222 -223 5 -13 19 -17
65 -17 32 0 101 -3 151 -7 l93 -6 -7 -449 -8 -448 86 0 c189 0 311 -28 642
-149 132 -49 299 -107 370 -131 166 -54 256 -96 324 -150 l53 -42 53 38 c129
94 373 276 400 299 l30 25 7 397 c3 219 6 440 7 491 l1 92 145 0 c214 0 214
-2 -50 245 -99 92 -245 229 -325 304 -80 76 -219 205 -310 288 -91 84 -223
206 -295 272 -71 67 -134 121 -140 121 -5 0 -50 -37 -100 -82z m-52 -1038
l107 0 0 -125 0 -125 -130 0 -130 0 0 131 c0 131 0 131 23 125 12 -3 70 -6
130 -6z m432 -130 l0 -125 -70 -3 c-38 -2 -94 0 -122 3 l-53 6 0 125 0 125
123 -3 122 -3 0 -125z m-333 -207 c2 -5 2 -63 0 -131 l-3 -123 -127 5 -127 5
-3 73 c-2 40 0 97 3 126 l6 52 124 0 c68 0 125 -3 127 -7z m231 -3 l97 0 0
-125 0 -125 -125 0 -125 0 0 108 c0 133 5 156 34 148 11 -3 65 -6 119 -6z"/>
<path d="M4280 3231 c-198 -28 -411 -162 -536 -337 -58 -82 -120 -212 -144
-307 -38 -151 -36 -380 6 -542 54 -210 229 -424 428 -524 123 -62 232 -84 406
-85 132 -1 152 2 221 26 79 28 177 81 227 123 16 13 32 22 35 18 4 -3 4 -38 0
-78 l-6 -72 148 -7 c81 -4 151 -4 155 1 4 4 10 223 14 486 l6 477 -157 0 c-87
0 -263 3 -390 7 l-233 6 0 -161 0 -162 204 0 c124 0 207 -4 211 -10 3 -5 3
-37 -1 -70 -6 -55 -11 -65 -51 -103 -59 -56 -113 -92 -181 -118 -84 -33 -253
-33 -337 0 -167 66 -279 204 -316 389 -18 95 -7 268 24 364 75 235 265 360
499 329 147 -20 261 -97 328 -224 14 -26 29 -47 35 -47 5 0 87 25 180 55 194
62 187 54 136 157 -91 181 -298 344 -502 393 -73 18 -326 28 -409 16z"/>
<path d="M5547 2823 c-4 -208 -10 -604 -14 -879 l-6 -502 197 -7 c108 -4 200
-4 204 0 4 3 8 164 10 356 l3 349 138 0 c76 0 240 -3 366 -7 l228 -6 -5 -352
-5 -353 196 -4 c108 -3 199 -2 203 1 4 3 11 312 17 686 6 374 13 769 15 878
l4 197 -202 0 -203 0 -6 -247 c-4 -137 -7 -292 -7 -345 l0 -98 -168 0 c-93 0
-257 3 -366 7 l-197 6 7 349 7 348 -205 0 -205 0 -6 -377z"/>
<path d="M7447 2678 c-4 -271 -10 -667 -14 -879 l-6 -387 192 -7 c106 -4 194
-5 197 -2 5 4 32 1404 34 1705 l0 62 -198 0 -199 0 -6 -492z"/>
<path d="M755 1483 c-55 -7 -199 -55 -260 -85 -115 -58 -425 -284 -425 -310 0
-15 343 -604 386 -662 13 -19 16 -18 91 19 74 37 84 40 185 43 132 5 197 -8
437 -89 364 -123 431 -139 579 -139 145 0 221 26 388 135 239 155 713 615 884
857 42 60 51 128 22 174 -21 33 -76 64 -115 64 -46 0 -133 -55 -322 -205 -104
-82 -227 -181 -274 -218 -48 -37 -104 -93 -126 -124 -49 -69 -105 -114 -182
-144 -52 -21 -74 -23 -213 -23 -303 1 -637 66 -648 126 -2 9 8 24 21 33 23 14
31 14 89 1 134 -31 305 -49 473 -50 162 -1 172 0 220 24 65 32 95 77 95 142 0
41 -5 54 -32 84 -29 30 -52 41 -183 80 -82 25 -215 68 -295 96 -380 132 -460
158 -520 168 -63 9 -213 11 -275 3z"/>
<path d="M3541 740 l-2 -340 70 0 71 0 0 137 0 136 98 -6 c53 -4 114 -7 135
-7 l37 0 0 -135 0 -135 75 0 75 0 0 318 c0 174 3 327 6 340 6 21 4 22 -70 22
l-76 0 0 -122 c0 -68 -4 -129 -8 -136 -7 -9 -41 -12 -138 -10 l-129 3 0 135 0
135 -71 3 -72 3 -1 -341z"/>
<path d="M4465 1061 c-94 -25 -164 -85 -209 -181 -29 -60 -31 -73 -31 -170 0
-86 4 -114 22 -152 30 -66 96 -133 162 -165 48 -24 68 -28 141 -28 74 0 92 4
144 30 61 31 108 79 147 155 21 40 24 58 24 165 0 102 -3 127 -22 167 -31 67
-95 132 -156 158 -56 25 -169 35 -222 21z m165 -146 c61 -31 90 -95 90 -197 0
-124 -52 -202 -147 -223 -170 -35 -276 242 -147 385 52 57 133 71 204 35z"/>
<path d="M4996 826 c-8 -244 -2 -310 37 -367 97 -145 377 -145 468 0 40 62 47
117 51 366 l3 220 -71 3 -71 3 -7 -238 c-7 -261 -13 -284 -71 -312 -40 -20
-108 -18 -140 3 -52 34 -58 68 -53 319 l5 227 -72 0 -72 0 -7 -224z"/>
<path d="M5820 1033 c-96 -33 -139 -92 -140 -191 0 -104 53 -154 210 -197 120
-33 150 -53 150 -100 0 -94 -185 -99 -232 -7 -9 19 -19 36 -21 39 -3 2 -36 2
-72 -2 l-67 -8 5 -40 c8 -59 55 -117 123 -152 52 -27 67 -30 148 -30 79 0 98
4 146 27 59 29 89 62 108 117 28 81 0 184 -60 221 -18 11 -64 29 -103 40 -161
46 -175 51 -186 71 -26 50 23 99 98 99 47 0 100 -31 109 -64 5 -23 9 -24 62
-19 81 7 81 7 73 45 -11 46 -24 68 -63 105 -63 59 -191 80 -288 46z"/>
<path d="M6307 858 c-4 -95 -7 -246 -7 -334 l0 -161 38 -7 c37 -6 101 -8 104
-3 1 1 4 154 7 340 l6 337 -71 0 -71 0 -6 -172z"/>
<path d="M6607 858 c-4 -95 -7 -248 -7 -340 l0 -168 70 0 70 0 0 217 c0 137 4
213 9 208 6 -6 70 -104 144 -220 l134 -210 72 -3 71 -3 0 264 c0 145 3 298 6
340 l7 77 -72 0 -71 0 -1 -207 c-1 -115 -1 -211 0 -215 5 -30 -32 20 -154 212
l-139 220 -66 0 -67 0 -6 -172z"/>
<path d="M7523 1011 c-125 -32 -221 -164 -231 -317 -8 -129 27 -224 112 -302
53 -49 79 -61 158 -72 69 -10 116 1 174 41 l42 28 6 -29 c5 -29 7 -30 61 -30
l55 0 0 180 0 180 -135 0 -135 0 0 -60 0 -60 64 0 c36 0 67 -4 70 -8 10 -16
-40 -85 -74 -103 -45 -24 -94 -24 -144 1 -53 26 -86 78 -99 156 -20 113 22
217 104 260 64 33 158 4 190 -58 17 -34 24 -39 47 -34 15 3 44 8 65 12 43 7
46 19 18 79 -41 90 -121 137 -241 141 -41 2 -89 -1 -107 -5z"/>
</g>
</svg>
